<mxfile host="app.diagrams.net" modified="2023-11-29T16:43:29.151Z" agent="Mozilla/5.0 (Windows NT 10.0; Win64; x64) AppleWebKit/537.36 (KHTML, like Gecko) Chrome/119.0.0.0 Safari/537.36" etag="VMLkVExq3HQF85ZgOHC1" version="22.1.5" type="github">
  <diagram name="Page-1" id="MLb0eEZk8WbDBYt1BTFu">
    <mxGraphModel dx="1019" dy="744" grid="1" gridSize="10" guides="1" tooltips="1" connect="1" arrows="1" fold="1" page="1" pageScale="1" pageWidth="850" pageHeight="1100" math="0" shadow="0">
      <root>
        <mxCell id="0" />
        <mxCell id="1" parent="0" />
        <mxCell id="qEeIo-kLCVnpmG2jUH4E-1" value="" style="outlineConnect=0;dashed=0;verticalLabelPosition=bottom;verticalAlign=top;align=center;html=1;shape=mxgraph.aws3.traditional_server;fillColor=#7D7C7C;gradientColor=none;" vertex="1" parent="1">
          <mxGeometry x="51.75" y="188.5" width="46.5" height="63" as="geometry" />
        </mxCell>
        <mxCell id="qEeIo-kLCVnpmG2jUH4E-2" value="" style="outlineConnect=0;dashed=0;verticalLabelPosition=bottom;verticalAlign=top;align=center;html=1;shape=mxgraph.aws3.traditional_server;fillColor=#7D7C7C;gradientColor=none;" vertex="1" parent="1">
          <mxGeometry x="111.75" y="188.5" width="46.5" height="63" as="geometry" />
        </mxCell>
        <mxCell id="qEeIo-kLCVnpmG2jUH4E-3" value="" style="outlineConnect=0;dashed=0;verticalLabelPosition=bottom;verticalAlign=top;align=center;html=1;shape=mxgraph.aws3.traditional_server;fillColor=#7D7C7C;gradientColor=none;" vertex="1" parent="1">
          <mxGeometry x="171.75" y="188.5" width="46.5" height="63" as="geometry" />
        </mxCell>
        <mxCell id="qEeIo-kLCVnpmG2jUH4E-4" value="" style="rounded=1;whiteSpace=wrap;html=1;fillColor=none;" vertex="1" parent="1">
          <mxGeometry x="30" y="160" width="210" height="120" as="geometry" />
        </mxCell>
        <mxCell id="qEeIo-kLCVnpmG2jUH4E-5" value="" style="shape=flexArrow;endArrow=classic;html=1;rounded=0;" edge="1" parent="1">
          <mxGeometry width="50" height="50" relative="1" as="geometry">
            <mxPoint x="250" y="219.5" as="sourcePoint" />
            <mxPoint x="310" y="220" as="targetPoint" />
          </mxGeometry>
        </mxCell>
        <mxCell id="qEeIo-kLCVnpmG2jUH4E-6" value="On-Premises&lt;br&gt;ab 1990 und frÃ¼her" style="text;html=1;strokeColor=none;fillColor=none;align=center;verticalAlign=middle;whiteSpace=wrap;rounded=0;" vertex="1" parent="1">
          <mxGeometry x="72.5" y="280" width="125" height="30" as="geometry" />
        </mxCell>
        <mxCell id="qEeIo-kLCVnpmG2jUH4E-10" value="" style="rounded=1;whiteSpace=wrap;html=1;fillColor=none;" vertex="1" parent="1">
          <mxGeometry x="320.5" y="160" width="249.5" height="120" as="geometry" />
        </mxCell>
        <mxCell id="qEeIo-kLCVnpmG2jUH4E-11" value="Virtualisierung in der private und public cloud&lt;br&gt;ab ca. 2006&amp;nbsp;" style="text;html=1;strokeColor=none;fillColor=none;align=center;verticalAlign=middle;whiteSpace=wrap;rounded=0;" vertex="1" parent="1">
          <mxGeometry x="366.63" y="290" width="157.25" height="30" as="geometry" />
        </mxCell>
        <mxCell id="qEeIo-kLCVnpmG2jUH4E-18" value="" style="shape=image;verticalLabelPosition=bottom;labelBackgroundColor=default;verticalAlign=top;aspect=fixed;imageAspect=0;image=https://arunpotti.files.wordpress.com/2021/12/microsoft_azure.svg_.png;" vertex="1" parent="1">
          <mxGeometry x="340" y="185" width="55" height="55" as="geometry" />
        </mxCell>
        <mxCell id="qEeIo-kLCVnpmG2jUH4E-19" value="" style="shape=image;verticalLabelPosition=bottom;labelBackgroundColor=default;verticalAlign=top;aspect=fixed;imageAspect=0;image=https://static-00.iconduck.com/assets.00/aws-icon-2048x2048-ptyrjxdo.png;" vertex="1" parent="1">
          <mxGeometry x="396.38" y="183.38" width="58.25" height="58.25" as="geometry" />
        </mxCell>
        <mxCell id="qEeIo-kLCVnpmG2jUH4E-20" value="" style="html=1;verticalLabelPosition=bottom;align=center;labelBackgroundColor=#ffffff;verticalAlign=top;strokeWidth=2;strokeColor=#0080F0;shadow=0;dashed=0;shape=mxgraph.ios7.icons.cloud;" vertex="1" parent="1">
          <mxGeometry x="462" y="183.87" width="90" height="57.27" as="geometry" />
        </mxCell>
        <mxCell id="qEeIo-kLCVnpmG2jUH4E-21" value="" style="outlineConnect=0;dashed=0;verticalLabelPosition=bottom;verticalAlign=top;align=center;html=1;shape=mxgraph.aws3.traditional_server;fillColor=#7D7C7C;gradientColor=none;" vertex="1" parent="1">
          <mxGeometry x="506" y="203.87" width="23" height="31.16" as="geometry" />
        </mxCell>
      </root>
    </mxGraphModel>
  </diagram>
</mxfile>
